<svg xmlns="http://www.w3.org/2000/svg" version="1.1" xmlns:xlink="http://www.w3.org/1999/xlink" viewBox="0 0 6.487788248772974 2.867992230144276"><g transform="matrix(0.7862595419847328,0,0,0.7862595419847328,1.8647398985102406,1.109824434296911)"><rect width="7.267436622016078" height="7.267436622016078" x="-1.8796483732431044" y="-3.2214222898278955" fill="#ffffff"></rect><g transform="matrix(1,0,0,1,0,0)"><g clip-path="url(#SvgjsClipPath202795)"><path d=" M -0.2646624572395313 -0.6318759072704428 L 3.7728023327694014 -0.6318759072704428 C 4.2341465605053585 -0.6318759072704428 4.60813987552987 -0.257882592245931 4.60813987552987 0.20346163549002594 L 4.60813987552987 0.6211304068702602 C 4.60813987552987 1.0824746346062173 4.2341465605053585 1.4564679496307291 3.7728023327694014 1.4564679496307291 L -0.2646624572395313 1.4564679496307291 C -0.7260066849754883 1.4564679496307291 -1.1 1.0824746346062173 -1.1 0.6211304068702602 L -1.1 0.20346163549002594 C -1.1 -0.257882592245931 -0.7260066849754883 -0.6318759072704428 -0.2646624572395313 -0.6318759072704428 Z" fill="#1d1dd4" transform="matrix(1,0,0,1,0,0)" fill-rule="nonzero"></path></g></g><g transform="matrix(1,0,0,1,0,0)"><path d=" M 0.30608856612413826 0.7770955407203337 Q 0.3126853024630205 0.7955664024692041 0.33181583784577917 0.8021631388080863 Q 0.35094637322853783 0.8087598751469687 0.3931654857973845 0.8087598751469687 Q 0.39712352760071384 0.8087598751469687 0.39712352760071384 0.8166759587536274 Q 0.39712352760071384 0.8245920423602862 0.3931654857973845 0.8245920423602862 Q 0.34962702596076134 0.8245920423602862 0.3245594278730086 0.8232726950925097 L 0.22428903552199786 0.8219533478247333 L 0.12665733770653997 0.8232726950925097 Q 0.1002703923510108 0.8245920423602862 0.05541258524661123 0.8245920423602862 Q 0.05277389071105831 0.8245920423602862 0.05277389071105831 0.8166759587536274 Q 0.05277389071105831 0.8087598751469687 0.05541258524661123 0.8087598751469687 Q 0.09763169781545789 0.8087598751469687 0.11742190683210475 0.8021631388080863 Q 0.13721211584875162 0.7955664024692041 0.14446852582152214 0.7764358670864454 Q 0.15172493579429266 0.7573053317036869 0.15172493579429266 0.717724913670393 L 0.15172493579429266 0.10686712868989301 Q 0.15172493579429266 0.0672867106565993 0.14446852582152214 0.04881584890772894 Q 0.13721211584875162 0.030344987158858472 0.11742190683210475 0.023088577186087922 Q 0.09763169781545789 0.015832167213317483 0.05541258524661123 0.015832167213317483 Q 0.05277389071105831 0.015832167213317483 0.05277389071105831 0.007916083606658741 Q 0.05277389071105831 0 0.05541258524661123 0 L 0.12665733770653997 0.001319347267776383 Q 0.18734731202425703 0.003958041803329371 0.22428903552199786 0.003958041803329371 Q 0.26518880082306806 0.003958041803329371 0.3258787751407851 0.001319347267776383 L 0.3931654857973845 0 Q 0.39712352760071384 0 0.39712352760071384 0.007916083606658741 Q 0.39712352760071384 0.015832167213317483 0.3931654857973845 0.015832167213317483 Q 0.35226572049631427 0.015832167213317483 0.3324755114796674 0.023748250819976224 Q 0.3126853024630205 0.031664334426634966 0.30608856612413826 0.05079486980939363 Q 0.29949182978525596 0.06992540519215218 0.29949182978525596 0.109505823225446 L 0.29949182978525596 0.717724913670393 Q 0.29949182978525596 0.7586246789714632 0.30608856612413826 0.7770955407203337 M 1.1979409064271669 0.8166759587536274 Q 1.1979409064271669 0.8245920423602862 1.195302211891614 0.8245920423602862 Q 1.1623185301972025 0.8245920423602862 1.1438476684483323 0.8232726950925097 L 1.0752416105239564 0.8219533478247333 L 0.9960807744573689 0.8232726950925097 Q 0.976290565440722 0.8245920423602862 0.9433068837463106 0.8245920423602862 Q 0.9406681892107576 0.8245920423602862 0.9406681892107576 0.8166759587536274 Q 0.9406681892107576 0.8087598751469687 0.9433068837463106 0.8087598751469687 Q 0.9736518709051691 0.8087598751469687 0.9881646908507101 0.8008437915403099 Q 1.0026775107962511 0.7929277079336512 1.0079548998673569 0.7737971725508925 Q 1.0132322889384628 0.7546666371681339 1.0132322889384628 0.7150862191348402 L 1.0132322889384628 0.45253611284732503 Q 1.0132322889384628 0.328517469676338 0.9769502390746102 0.28168064167027373 Q 0.9406681892107576 0.23484381366420948 0.8773395203574876 0.23484381366420948 Q 0.8245656296464293 0.23484381366420948 0.7790481489081416 0.2612307590197386 Q 0.7335306681698537 0.2876177043752678 0.69395025013656 0.3469883314252084 L 0.69395025013656 0.7150862191348402 Q 0.69395025013656 0.7546666371681339 0.6985679655737776 0.7737971725508925 Q 0.7031856810109952 0.7929277079336512 0.717038827322648 0.8008437915403099 Q 0.7308919736343009 0.8087598751469687 0.7599176135253829 0.8087598751469687 Q 0.7625563080609359 0.8087598751469687 0.7625563080609359 0.8166759587536274 Q 0.7625563080609359 0.8245920423602862 0.7599176135253829 0.8245920423602862 Q 0.7216565427598656 0.8245920423602862 0.6992276392076658 0.8232726950925097 L 0.6227054976766313 0.8219533478247333 L 0.5501413979489261 0.8232726950925097 Q 0.5290318416645028 0.8245920423602862 0.49077077089898546 0.8245920423602862 Q 0.4881320763634326 0.8245920423602862 0.4881320763634326 0.8166759587536274 Q 0.4881320763634326 0.8087598751469687 0.49077077089898546 0.8087598751469687 Q 0.521115758057844 0.8087598751469687 0.5362882516372733 0.8021631388080863 Q 0.5514607452167025 0.7955664024692041 0.5567381342878084 0.7764358670864454 Q 0.5620155233589142 0.7573053317036869 0.5620155233589142 0.717724913670393 L 0.5620155233589142 0.3140046497307969 Q 0.5620155233589142 0.2744242316975032 0.5567381342878084 0.2559533699486328 Q 0.5514607452167025 0.23748250819976235 0.5376075989050497 0.23022609822699192 Q 0.5237544525933969 0.22296968825422137 0.4947288127023149 0.22296968825422137 Q 0.49077077089898546 0.22296968825422137 0.49077077089898546 0.21505360464756262 Q 0.49077077089898546 0.20713752104090388 0.4947288127023149 0.20713752104090388 L 0.5804863851077846 0.20845686830868027 L 0.6688826520488074 0.20713752104090388 Q 0.6847148192621249 0.20713752104090388 0.6893325346993424 0.21175523647812144 Q 0.69395025013656 0.216372951915339 0.69395025013656 0.2322051191286566 L 0.69395025013656 0.30476921885636177 Q 0.7440854463120654 0.2467179390741976 0.8021367260942296 0.219011646450892 Q 0.8601880058763938 0.1913053538275864 0.9301134110685461 0.1913053538275864 Q 1.022467719812898 0.1913053538275864 1.0831576941306151 0.2434195709047564 Q 1.1438476684483323 0.29553378798192653 1.1438476684483323 0.4221911256884665 L 1.1438476684483323 0.717724913670393 Q 1.1438476684483323 0.7573053317036869 1.1478057102516614 0.7764358670864454 Q 1.151763752054991 0.7955664024692041 1.1623185301972025 0.8021631388080863 Q 1.1728733083394143 0.8087598751469687 1.195302211891614 0.8087598751469687 Q 1.1979409064271669 0.8087598751469687 1.1979409064271669 0.8166759587536274 M 1.9170083590165279 0.21505360464756262 Q 1.9170083590165279 0.22296968825422137 1.914369664480975 0.22296968825422137 Q 1.8761085937154576 0.22296968825422137 1.8444442592888226 0.25463402268085633 Q 1.8127799248621876 0.2862983571074913 1.7916703685777644 0.34171094235410254 L 1.6056424038212838 0.8232726950925097 Q 1.6043230565535074 0.8285500841636155 1.5911295838757429 0.8285500841636155 Q 1.5779361111979782 0.8285500841636155 1.5766167639302018 0.8232726950925097 L 1.332537519391557 0.3166433442663499 Q 1.306150574036028 0.2612307590197386 1.2863603650193811 0.24210022363698003 Q 1.266570156002734 0.22296968825422137 1.2322671270405463 0.22296968825422137 Q 1.228309085237217 0.22296968825422137 1.228309085237217 0.21505360464756262 Q 1.228309085237217 0.20713752104090388 1.2322671270405463 0.20713752104090388 L 1.2903184068227105 0.20845686830868027 Q 1.3404536029982157 0.21109556284423325 1.3866307573703918 0.21109556284423325 Q 1.4235724808681327 0.21109556284423325 1.4737076770436381 0.20845686830868027 L 1.531758956825802 0.20713752104090388 Q 1.534397651361355 0.20713752104090388 1.534397651361355 0.21505360464756262 Q 1.534397651361355 0.22296968825422137 1.531758956825802 0.22296968825422137 Q 1.4631528989014264 0.22296968825422137 1.4631528989014264 0.26386945355529157 Q 1.4631528989014264 0.27838227350083256 1.4737076770436381 0.3034498715885853 L 1.6386260855156953 0.6491188557460172 L 1.7560479923478 0.3337948587474438 Q 1.7666027704900116 0.30476921885636177 1.7666027704900116 0.2836596625719384 Q 1.7666027704900116 0.22296968825422137 1.6848032398878714 0.22296968825422137 Q 1.6808451980845418 0.22296968825422137 1.6808451980845418 0.21505360464756262 Q 1.6808451980845418 0.20713752104090388 1.6848032398878714 0.20713752104090388 L 1.7309803942600475 0.20845686830868027 Q 1.773199506828894 0.21109556284423325 1.814099272129964 0.21109556284423325 Q 1.8365281756821639 0.21109556284423325 1.865553815573246 0.20845686830868027 L 1.914369664480975 0.20713752104090388 Q 1.9170083590165279 0.20713752104090388 1.9170083590165279 0.21505360464756262 M 2.101729860755894 0.7962260761030923 Q 2.0278464137604124 0.752027942632581 1.986946648459342 0.6774848220032111 Q 1.9460468831582718 0.6029417013738412 1.9460468831582718 0.515864781700595 Q 1.9460468831582718 0.4155943893495842 1.9981611002354418 0.34171094235410254 Q 2.050275317312612 0.26782749535862094 2.131415174280864 0.2295664245931036 Q 2.2125550312491162 0.1913053538275864 2.298312603654586 0.1913053538275864 Q 2.3919862596667145 0.1913053538275864 2.4638906857605316 0.23682283456587416 Q 2.5357951118543482 0.2823403153041619 2.5753755298876424 0.3555640886657554 Q 2.614955947920936 0.4287878620273488 2.614955947920936 0.5092680453617127 Q 2.614955947920936 0.5976643123027354 2.56877879354876 0.6735267801998817 Q 2.522601639176584 0.7493892480970281 2.4434408031099966 0.7949067288353159 Q 2.364279967043409 0.8404242095736036 2.269286963763504 0.8404242095736036 Q 2.1756133077513757 0.8404242095736036 2.101729860755894 0.7962260761030923 M 2.419032878656132 0.7375151226870399 Q 2.46455035939442 0.6649510229593347 2.46455035939442 0.5369743379850183 Q 2.46455035939442 0.4498974183117721 2.4381634140388906 0.3786526658518434 Q 2.4117764686833616 0.30740791339191464 2.3636202934095207 0.26584847445695625 Q 2.31546411813568 0.22428903552199786 2.25213544928241 0.22428903552199786 Q 2.1756133077513757 0.22428903552199786 2.1360328897180816 0.2876177043752678 Q 2.096452471684788 0.3509463732285378 2.096452471684788 0.4749650163995248 Q 2.096452471684788 0.5686386724116533 2.1234990906742053 0.6458204875765761 Q 2.1505457096636227 0.7230023027414989 2.1967228640357988 0.766540762578122 Q 2.242900018407975 0.8100792224147452 2.2996319509223624 0.8100792224147452 Q 2.3735153979178443 0.8100792224147452 2.419032878656132 0.7375151226870399 M 3.5081759514317232 0.8166759587536274 Q 3.5081759514317232 0.8245920423602862 3.504217909628394 0.8245920423602862 Q 3.4659568388628768 0.8245920423602862 3.4448472825784533 0.8232726950925097 L 3.365686446511866 0.8219533478247333 L 3.2574999705541963 0.8232726950925097 Q 3.2324323724664437 0.8245920423602862 3.187574565362044 0.8245920423602862 Q 3.183616523558715 0.8245920423602862 3.183616523558715 0.8166759587536274 Q 3.183616523558715 0.8087598751469687 3.187574565362044 0.8087598751469687 Q 3.2311130251986673 0.8087598751469687 3.2311130251986673 0.7863309715947688 Q 3.2311130251986673 0.7744568461847807 3.219238899788679 0.7573053317036869 L 3.0384883241033043 0.47760371093507775 L 2.925024459074529 0.6398834248715821 Q 2.873569915631247 0.7124475245992872 2.873569915631247 0.7573053317036869 Q 2.873569915631247 0.8087598751469687 2.942175973555623 0.8087598751469687 Q 2.9448146680911758 0.8087598751469687 2.9448146680911758 0.8166759587536274 Q 2.9448146680911758 0.8245920423602862 2.942175973555623 0.8245920423602862 Q 2.8986375137189997 0.8245920423602862 2.8762086101668 0.8232726950925097 L 2.778576912351342 0.8219533478247333 L 2.7165675907658486 0.8232726950925097 Q 2.6994160762847548 0.8245920423602862 2.6611550055192374 0.8245920423602862 Q 2.657196963715908 0.8245920423602862 2.657196963715908 0.8166759587536274 Q 2.657196963715908 0.8087598751469687 2.6611550055192374 0.8087598751469687 Q 2.7020547708203075 0.8087598751469687 2.7614253978702483 0.7652214153103456 Q 2.8207960249201887 0.7216829554737224 2.8854440410412354 0.6319673412649233 L 3.020017462354434 0.4498974183117721 L 2.8089218995102008 0.12137994863543411 Q 2.773299523280236 0.06464801612104643 2.740315841585825 0.0402400916671819 Q 2.7073321598914135 0.015832167213317483 2.6703904363936726 0.015832167213317483 Q 2.6664323945903434 0.015832167213317483 2.6664323945903434 0.007916083606658741 Q 2.6664323945903434 0 2.6703904363936726 0 L 2.72712236890806 0.001319347267776383 Q 2.764064092405801 0.003958041803329371 2.7825349541546713 0.003958041803329371 Q 2.8287121085268474 0.003958041803329371 2.8973181664512233 0.001319347267776383 L 2.9725209607144816 0 Q 2.9751596552500343 0 2.9751596552500343 0.007916083606658741 Q 2.9751596552500343 0.015832167213317483 2.9725209607144816 0.015832167213317483 Q 2.927663153610082 0.015832167213317483 2.927663153610082 0.03826107076551721 Q 2.927663153610082 0.04881584890772894 2.93953727902007 0.0686060579243758 L 3.1136911183665625 0.33643355328299673 L 3.219238899788679 0.18602796475648053 Q 3.270693443231961 0.11214451776099887 3.270693443231961 0.0672867106565993 Q 3.270693443231961 0.015832167213317483 3.202087385307585 0.015832167213317483 Q 3.1994486907720323 0.015832167213317483 3.1994486907720323 0.007916083606658741 Q 3.1994486907720323 0 3.202087385307585 0 L 3.268054748696408 0.001319347267776383 Q 3.320828639407466 0.003958041803329371 3.365686446511866 0.003958041803329371 Q 3.3933927391351713 0.003958041803329371 3.4276957680973594 0.001319347267776383 L 3.4831083533439706 0 Q 3.4870663951473 0 3.4870663951473 0.007916083606658741 Q 3.4870663951473 0.015832167213317483 3.4831083533439706 0.015832167213317483 Q 3.440889240775124 0.015832167213317483 3.3821782873590718 0.06003030068382875 Q 3.3234673339430194 0.10422843415434013 3.2574999705541963 0.19394404836313928 L 3.132161980115433 0.3654591931740788 L 3.357770362905207 0.7150862191348402 Q 3.3907540445996185 0.7639020680425691 3.4250570735618067 0.7863309715947688 Q 3.4593601025239944 0.8087598751469687 3.504217909628394 0.8087598751469687 Q 3.5081759514317232 0.8087598751469687 3.5081759514317232 0.8166759587536274" fill="#ffffff" fill-rule="nonzero"></path></g><g transform="matrix(1,0,0,1,0,0)"></g></g><defs><clipPath id="SvgjsClipPath202795"><path d=" M -1.1 -0.6318759072704428 h 5.70813987552987 v 2.088343856901172 h -5.70813987552987 Z"></path></clipPath></defs></svg>